<svg xmlns="http://www.w3.org/2000/svg" width="192" height="192" viewBox="0 0 192 192" version="1.1">
	<path d="M 167.677 4 C 166.944 5.532, 165.517 6.592, 163.991 6.737 L 161.500 6.974 163.750 5.834 C 167.877 3.744, 166.233 2.295, 161.250 3.630 C 159.251 4.166, 159 4.868, 159 9.917 C 159 13.042, 158.512 16.088, 157.915 16.685 C 156.625 17.975, 157.070 22.079, 158.500 22.079 C 159.050 22.079, 159.642 21.174, 159.816 20.068 C 160.196 17.644, 164.618 16.190, 174.250 15.320 C 180.746 14.733, 181 14.794, 181 16.938 C 181 18.273, 181.501 19.002, 182.250 18.756 C 183.791 18.250, 184.544 12, 183.063 12 C 182.441 12, 182 9.718, 182 6.500 L 182 1 178.500 1 C 176.575 1, 175 1.450, 175 2 C 175 2.550, 176.152 3, 177.559 3 C 179.010 3, 179.851 3.433, 179.500 4 C 179.160 4.550, 178.009 5, 176.941 5 C 173.902 5, 174.668 6.988, 177.750 7.100 C 180.335 7.193, 180.361 7.238, 178.191 7.850 C 175.699 8.551, 175.186 10.590, 177.559 10.361 C 178.351 10.285, 179 10.622, 179 11.111 C 179 11.600, 178.362 12, 177.582 12 C 176.802 12, 175.526 12.245, 174.746 12.544 C 173.787 12.912, 173.376 12.433, 173.477 11.064 C 173.559 9.951, 173.906 8.760, 174.249 8.418 C 174.592 8.075, 174.516 6.828, 174.080 5.647 C 173.644 4.466, 173.470 2.984, 173.693 2.353 C 173.938 1.658, 173.067 1.264, 171.485 1.353 C 169.770 1.449, 168.461 2.359, 167.677 4 M 167.750 6.689 C 166.787 6.941, 166 7.564, 166 8.073 C 166 8.583, 165.100 9, 164 9 C 162.900 9, 162 9.480, 162 10.067 C 162 10.680, 162.853 10.864, 164 10.500 C 165.216 10.114, 166 10.320, 166 11.026 C 166 11.665, 165.100 12.423, 164 12.710 C 162.900 12.998, 162 13.679, 162 14.224 C 162 14.768, 162.712 14.941, 163.582 14.607 C 164.452 14.273, 165.828 14, 166.641 14 C 167.453 14, 167.863 13.588, 167.552 13.084 C 166.495 11.374, 168.833 6.999, 170.468 7.626 C 171.311 7.949, 172 7.716, 172 7.107 C 172 5.980, 170.883 5.871, 167.750 6.689 M 146.250 8.137 C 145.563 8.832, 145 10.406, 145 11.635 C 145 14.696, 142.883 19.829, 142.286 18.216 C 142.025 17.510, 142.266 16.384, 142.823 15.714 C 144.523 13.665, 141.868 11.190, 138.168 11.376 C 136.372 11.467, 134.586 12.033, 134.201 12.636 C 133.815 13.238, 132.488 14.046, 131.250 14.433 C 130.012 14.819, 129 15.914, 129 16.867 C 129 17.820, 128.460 19.140, 127.800 19.800 C 126.867 20.733, 126.867 21, 127.800 21 C 128.460 21, 129 21.684, 129 22.519 C 129 23.630, 129.739 23.905, 131.750 23.541 L 134.500 23.044 131.750 24.215 C 129.713 25.082, 129 26.090, 129 28.099 C 129 30.370, 129.367 30.745, 131.250 30.395 C 132.907 30.088, 132.775 30.266, 130.750 31.072 C 129.238 31.674, 128 32.790, 128 33.552 C 128 34.433, 128.606 34.705, 129.664 34.299 C 130.730 33.890, 131.085 34.053, 130.652 34.754 C 130.279 35.357, 130.767 36.031, 131.738 36.254 C 133.163 36.583, 132.974 36.915, 130.750 37.991 C 129.238 38.722, 128 39.699, 128 40.161 C 128 41.643, 130.656 41.059, 133.273 39 C 134.671 37.900, 136.934 37, 138.301 37 C 141.070 37, 142.795 34.308, 140.343 33.813 C 139.122 33.566, 139.356 32.898, 141.454 30.639 C 144.619 27.231, 144.197 26.387, 140.051 27.832 C 136.404 29.104, 135.914 28.363, 139.500 27 C 140.967 26.442, 142 25.257, 142 24.132 C 142 20.587, 144.796 20.851, 146.003 24.510 C 146.987 27.492, 146.849 28.285, 144.884 30.943 C 141.953 34.907, 143.440 36.348, 146.633 32.638 C 148.997 29.892, 149.174 29.847, 151.027 31.525 C 152.866 33.189, 152.991 33.187, 153.642 31.492 C 154.091 30.319, 153.671 29.223, 152.412 28.285 C 151.361 27.501, 150.593 26.498, 150.708 26.056 C 150.822 25.615, 151.348 22.609, 151.877 19.377 C 152.405 16.145, 153.167 12.662, 153.569 11.638 C 154.215 9.992, 153.942 9.854, 151.228 10.450 C 148.603 11.026, 148.108 10.815, 147.828 9 C 147.564 7.292, 147.254 7.123, 146.250 8.137 M 169.813 12.683 C 170.534 12.972, 171.397 12.936, 171.729 12.604 C 172.061 12.272, 171.471 12.036, 170.417 12.079 C 169.252 12.127, 169.015 12.364, 169.813 12.683 M 137.813 14.683 C 138.534 14.972, 139.397 14.936, 139.729 14.604 C 140.061 14.272, 139.471 14.036, 138.417 14.079 C 137.252 14.127, 137.015 14.364, 137.813 14.683 M 147.460 15.065 C 147.098 15.651, 147.138 17.788, 147.549 19.815 C 148.257 23.307, 148.335 23.369, 149.048 21 C 150.639 15.716, 149.556 11.673, 147.460 15.065 M 132 17.059 C 132 17.641, 132.450 17.840, 133 17.500 C 133.550 17.160, 134 16.684, 134 16.441 C 134 16.198, 133.550 16, 133 16 C 132.450 16, 132 16.477, 132 17.059 M 167.581 17.346 C 164.876 17.981, 162.460 19.110, 162.213 19.855 C 161.905 20.784, 162.351 21.035, 163.632 20.652 C 164.659 20.346, 166.850 19.774, 168.500 19.382 C 171.043 18.777, 171.319 18.889, 170.310 20.115 C 169.655 20.910, 166.393 22.166, 163.060 22.905 C 159.236 23.754, 157 24.757, 157 25.625 C 157 27.256, 156.923 27.246, 160.601 26.083 C 166.147 24.328, 169 23.954, 169 24.981 C 169 25.541, 168.352 26, 167.559 26 C 166.034 26, 164.467 27.800, 165.282 28.615 C 166.476 29.810, 171.227 27.533, 172.048 25.373 C 172.848 23.271, 173.581 23, 178.475 23 C 182.915 23, 184 22.680, 184 21.370 C 184 20.019, 183.187 19.829, 179.250 20.262 C 174.755 20.755, 174.621 20.702, 176.750 19.270 C 177.988 18.437, 179 17.361, 179 16.878 C 179 15.705, 173.639 15.925, 167.581 17.346 M 137.500 18 C 137.160 18.550, 137.332 19, 137.882 19 C 138.432 19, 139.160 18.550, 139.500 18 C 139.840 17.450, 139.668 17, 139.118 17 C 138.568 17, 137.840 17.450, 137.500 18 M 132.500 20 C 132.160 20.550, 132.359 21, 132.941 21 C 133.523 21, 134 20.550, 134 20 C 134 19.450, 133.802 19, 133.559 19 C 133.316 19, 132.840 19.450, 132.500 20 M 138 21 C 136.667 21.862, 136.667 21.969, 138 21.969 C 138.825 21.969, 140.175 21.533, 141 21 C 142.333 20.138, 142.333 20.031, 141 20.031 C 140.175 20.031, 138.825 20.467, 138 21 M 110 23.375 C 110 25.333, 109.080 26.080, 104.750 27.635 L 99.500 29.520 99.217 40.760 C 98.934 52.038, 99.585 54.069, 102.390 50.644 C 103.755 48.976, 117.569 43.752, 121 43.606 C 123.495 43.500, 123.501 43.476, 123.783 32.250 C 123.941 25.946, 123.665 21, 123.155 21 C 122.654 21, 120.629 21.675, 118.654 22.500 C 116.680 23.325, 114.600 24, 114.032 24 C 113.464 24, 113 23.325, 113 22.500 C 113 21.675, 112.325 21, 111.500 21 C 110.588 21, 110 21.931, 110 23.375 M 137 24.969 C 137 25.501, 137.675 25.678, 138.500 25.362 C 139.325 25.045, 140 24.609, 140 24.393 C 140 24.177, 139.325 24, 138.500 24 C 137.675 24, 137 24.436, 137 24.969 M 116.250 26.491 C 113.803 27.554, 113 28.533, 113 30.452 C 113 33.433, 113.018 33.437, 117.532 31.551 C 120.204 30.434, 121 29.517, 121 27.551 C 121 24.631, 120.689 24.561, 116.250 26.491 M 132 27.059 C 132 27.641, 132.450 27.840, 133 27.500 C 133.550 27.160, 134 26.684, 134 26.441 C 134 26.198, 133.550 26, 133 26 C 132.450 26, 132 26.477, 132 27.059 M 80.072 30.866 C 79.469 31.992, 77.470 32.989, 75.036 33.378 L 71 34.024 71 46.012 C 71 57.466, 71.403 59.197, 73.563 57.037 C 74.093 56.507, 78.683 55.508, 83.763 54.816 L 93 53.558 93 41.672 C 93 31.780, 92.760 29.878, 91.571 30.334 C 90.785 30.636, 88.462 31.198, 86.410 31.583 C 83.203 32.185, 82.766 32.052, 83.307 30.642 C 84.199 28.318, 81.329 28.517, 80.072 30.866 M 105.250 30.491 C 102.803 31.554, 102 32.533, 102 34.452 C 102 37.433, 102.018 37.437, 106.532 35.551 C 109.204 34.434, 110 33.517, 110 31.551 C 110 28.631, 109.689 28.561, 105.250 30.491 M 135.250 31.662 C 133.560 32.344, 133.661 34, 135.393 34 C 136.159 34, 137.045 33.325, 137.362 32.500 C 137.950 30.967, 137.458 30.771, 135.250 31.662 M 84.500 35 C 82.850 35.420, 79.813 35.817, 77.750 35.882 C 74.802 35.975, 74 36.398, 74 37.861 C 74 39.867, 74.169 39.867, 84.750 37.856 C 88.169 37.206, 90 36.360, 90 35.429 C 90 33.887, 89.137 33.820, 84.500 35 M 115.750 35.162 C 113.500 35.984, 113 36.774, 113 39.503 L 113 42.839 117 41.268 C 120.363 39.947, 121 39.243, 121 36.848 C 121 33.800, 120.191 33.540, 115.750 35.162 M 6.629 39.250 C 12.047 49.727, 22.730 56.353, 33.865 56.143 C 41.697 55.996, 44.023 55.369, 48.531 52.191 C 52.257 49.565, 52.937 49.368, 53.288 50.814 C 53.700 52.504, 55.789 48.674, 57.496 43.099 C 58.127 41.036, 57.968 40.799, 56.365 41.420 C 42.179 46.916, 25.460 45.999, 12.173 38.995 C 9.053 37.350, 6.151 36.003, 5.724 36.002 C 5.298 36.001, 5.705 37.462, 6.629 39.250 M 104.750 39.162 C 102.608 39.945, 102 40.812, 102 43.083 C 102 46.335, 102.356 46.469, 106.851 44.902 C 109.407 44.011, 110 43.258, 110 40.902 C 110 37.797, 109.208 37.534, 104.750 39.162 M 84.500 41 C 82.850 41.420, 79.813 41.817, 77.750 41.882 C 74.648 41.980, 74 42.362, 74 44.094 C 74 46.035, 74.370 46.137, 79.057 45.492 C 86.889 44.415, 89.472 43.500, 89.823 41.678 C 90.167 39.893, 89.289 39.781, 84.500 41 M 81.750 47.924 C 75.241 49.120, 74 49.659, 74 51.286 C 74 52.916, 74.514 53.136, 77.250 52.677 C 79.037 52.377, 82.444 51.833, 84.820 51.466 C 88.783 50.856, 90.710 49.251, 89.844 47.283 C 89.655 46.852, 86.013 47.141, 81.750 47.924" stroke="none" fill="black" fill-rule="evenodd"/>
</svg>