<svg xmlns="http://www.w3.org/2000/svg" width="819" height="819" viewBox="0 0 819 819" version="1.1">
	<path d="M 495.500 53.130 C 489.591 54.652, 474.626 58.860, 465.500 61.566 C 453.062 65.253, 417.337 75.245, 398 80.444 C 388.375 83.032, 375.775 86.443, 370 88.024 C 364.225 89.606, 346.225 94.263, 330 98.374 C 313.775 102.485, 289.250 108.838, 275.500 112.490 C 261.750 116.143, 243.075 121.097, 234 123.498 C 224.925 125.899, 212.325 129.267, 206 130.982 C 199.675 132.697, 186.175 136.288, 176 138.962 C 140.555 148.277, 134.466 150.148, 127.658 153.812 C 109.195 163.751, 95.705 180.385, 91.571 198.312 C 88.377 212.163, 89.812 222.052, 98.571 246.536 C 104.926 264.300, 104.934 264.328, 106.546 274.661 C 108.307 285.946, 121.671 326.229, 125.840 332.815 C 127.731 335.803, 133.422 351.806, 141.552 377 C 162.162 440.870, 164.925 450.080, 165.986 458.452 C 167.032 466.697, 173.112 485.821, 180.467 504 C 187.735 521.963, 205.030 577.219, 206.549 587.327 C 207.484 593.553, 210.258 603.053, 215.073 616.527 C 221.866 635.533, 227.875 653.608, 233.428 671.736 C 238.133 687.095, 248.763 699.964, 262.830 707.328 C 271.157 711.688, 278.250 713.736, 288.454 714.727 L 296.408 715.500 304.508 740.246 C 312.982 766.135, 313.933 767.908, 319.390 767.968 C 323.380 768.012, 327.037 763.681, 335.156 749.294 C 339.493 741.609, 342.359 737.547, 343.384 737.635 C 344.249 737.710, 350.796 741.197, 357.933 745.385 C 371.788 753.516, 375.492 754.508, 378.975 751.025 C 382.643 747.357, 382.514 744.575, 378.009 730.145 C 375.666 722.640, 372.518 713.006, 371.012 708.734 L 368.276 700.969 370.888 700.398 C 372.325 700.084, 381.825 697.644, 392 694.976 C 402.175 692.308, 416.800 688.481, 424.500 686.470 C 432.200 684.459, 443.942 681.292, 450.593 679.431 C 457.244 677.570, 473.219 673.351, 486.093 670.057 C 517.065 662.131, 543.486 655.151, 565.500 649.080 C 596.462 640.541, 629.035 631.884, 641 629.013 C 656.106 625.390, 684.955 616.899, 692.397 613.887 C 697.583 611.787, 698.657 610.852, 701.320 606.114 C 703.761 601.770, 704.433 599.232, 704.795 592.988 C 705.372 583.008, 703.867 578.490, 695.488 565.054 C 690.786 557.515, 687.973 551.532, 685.378 543.554 C 682.043 533.300, 681.828 531.899, 682.402 524.194 C 683.012 515.998, 683.088 515.806, 688.178 509.694 C 695.986 500.317, 698.337 494.411, 698.806 483 L 699.197 473.500 692.460 456 C 688.755 446.375, 682.007 428.825, 677.465 417 C 665.424 385.649, 661.570 375.807, 648.294 342.500 C 628.936 293.935, 613.748 255.265, 603.127 227.500 C 597.657 213.200, 589.708 192.725, 585.462 182 C 571.839 147.584, 563.086 124.060, 555.118 100.446 C 550.839 87.767, 546.040 75.007, 544.453 72.091 C 540.826 65.427, 534.637 59.936, 526.124 55.831 C 520.233 52.991, 518.393 52.608, 509.500 52.369 C 504 52.221, 497.700 52.563, 495.500 53.130 M 498.771 69.020 C 490.195 70.790, 474.154 75.645, 472.821 76.874 C 471.500 78.093, 481.777 90.603, 487.107 94.262 C 494.224 99.149, 511.947 105.735, 521.587 107.075 C 530.136 108.264, 539 107.504, 539 105.582 C 539 104.429, 534.621 93.592, 529.748 82.684 C 526.346 75.070, 518.953 69.343, 510.500 67.775 C 508.850 67.469, 503.572 68.029, 498.771 69.020 M 427.500 90.596 C 401.159 97.804, 379.874 103.443, 314.500 120.532 C 296.900 125.132, 278.225 130.072, 273 131.509 C 267.775 132.946, 255.175 136.314, 245 138.993 C 234.825 141.671, 216.375 146.569, 204 149.876 C 191.625 153.183, 177.225 156.839, 172 158 C 166.775 159.161, 162.196 160.423, 161.824 160.805 C 161.208 161.439, 162.860 166.182, 170.774 186.500 L 173.500 193.500 174 183 L 174.500 172.500 176.785 177.766 C 178.041 180.663, 180.380 186.963, 181.983 191.766 C 183.585 196.570, 187.432 207.475, 190.532 216 C 195.917 230.809, 203.335 252.693, 207.933 267.331 C 210.897 276.768, 217.846 308.007, 217.587 310.730 C 217.470 311.956, 217.111 313.223, 216.789 313.544 C 216.467 313.866, 217.750 318.488, 219.640 323.815 C 221.530 329.142, 224.184 336.616, 225.538 340.425 C 226.892 344.234, 228 347.961, 228 348.707 C 228 349.454, 228.742 351.737, 229.649 353.782 C 230.556 355.827, 232.763 361.775, 234.554 367 C 236.344 372.225, 237.852 375.712, 237.905 374.750 C 237.957 373.788, 238.675 373, 239.500 373 C 240.362 373, 241 372.098, 241 370.878 C 241 369.104, 241.247 368.960, 242.500 370 C 243.325 370.685, 244 371.769, 244 372.410 C 244 373.050, 245.834 377.098, 248.077 381.404 C 250.319 385.710, 252.740 392.036, 253.456 395.461 C 254.873 402.232, 258.366 412.740, 260.778 417.486 C 261.613 419.129, 262.372 421.154, 262.464 421.986 C 262.804 425.036, 264.231 428.975, 264.857 428.591 C 265.211 428.373, 265.593 429.489, 265.708 431.070 C 265.822 432.651, 267.059 436.363, 268.458 439.319 C 269.856 442.275, 271 445.212, 271 445.846 C 271 446.481, 271.400 447, 271.889 447 C 272.378 447, 272.715 447.787, 272.639 448.750 C 272.538 450.022, 273.117 450.414, 274.757 450.186 C 276.104 449.999, 277.256 450.502, 277.614 451.436 C 278.268 453.142, 282 453.622, 282 452 C 282 451.450, 282.450 451, 283 451 C 283.550 451, 284 451.675, 284 452.500 C 284 453.325, 284.450 454, 285 454 C 285.550 454, 286 454.900, 286 456 C 286 457.333, 286.667 458, 288 458 C 289.111 458, 290 457.333, 290 456.500 C 290 455.675, 290.450 455, 291 455 C 291.550 455, 292 455.675, 292 456.500 C 292 457.590, 293.123 458, 296.107 458 C 299.307 458, 300.090 457.676, 299.651 456.532 C 298.449 453.400, 301.010 454.185, 305.249 458.249 C 310.171 462.966, 316.059 467.920, 320.743 471.286 C 322.438 472.504, 327.577 476.456, 332.162 480.068 C 342.327 488.076, 362.755 500.962, 371.746 505.039 C 375.386 506.689, 381.094 508.752, 384.432 509.622 C 387.769 510.492, 391.625 511.496, 393 511.852 C 396.375 512.727, 422.622 512.575, 427 511.655 C 442.844 508.326, 448.614 506.431, 460 500.819 C 466.875 497.431, 472.725 494.367, 473 494.011 C 474.395 492.204, 487.299 483, 488.438 483 C 489.163 483, 490.507 481.988, 491.424 480.750 C 492.342 479.512, 492.816 479.175, 492.478 480 C 492.140 480.825, 493.164 480.038, 494.754 478.250 C 496.345 476.463, 497.904 475, 498.221 475 C 498.537 475, 501.863 472.108, 505.613 468.574 C 509.362 465.039, 512.783 462.366, 513.215 462.633 C 513.647 462.900, 514 462.623, 514 462.017 C 514 460.070, 517.778 456.745, 519.078 457.548 C 519.871 458.038, 520.053 457.895, 519.591 457.147 C 519.189 456.497, 519.562 455.722, 520.437 455.386 C 521.296 455.056, 522 454.399, 522 453.926 C 522 452.599, 528.912 445.998, 530.283 446.015 C 531.062 446.025, 530.971 446.365, 530.029 446.961 C 529.220 447.473, 528.774 448.107, 529.037 448.371 C 529.301 448.634, 531.624 446.859, 534.200 444.425 C 538.221 440.626, 538.573 439.999, 536.692 439.996 C 534.784 439.993, 534.918 439.738, 537.723 438.027 C 539.638 436.860, 541.198 434.933, 541.566 433.281 C 542.991 426.887, 543.048 426.796, 544.750 428.197 C 546.142 429.344, 546.252 429.178, 545.664 426.818 C 545.129 424.669, 545.399 424.008, 547.024 423.492 C 548.140 423.138, 548.939 422.320, 548.799 421.674 C 548.477 420.186, 553.474 412.808, 554.267 413.600 C 555.165 414.498, 561 412.980, 561 411.849 C 561 410.529, 563.582 408, 564.929 408 C 565.518 408, 566 408.450, 566 409 C 566 409.550, 566.873 410, 567.940 410 C 569.459 410, 569.946 409.188, 570.190 406.250 L 570.500 402.500 578.250 402.208 L 586 401.916 586 397.958 C 586 394.667, 586.337 394, 588 394 C 589.333 394, 590 393.333, 590 392 C 590 390.667, 590.667 390, 592 390 C 593.667 390, 594 389.333, 594 386 C 594 382.667, 594.333 382, 596 382 C 597.333 382, 598 381.333, 598 380 C 598 378.333, 598.667 378, 602 378 C 605.333 378, 606 377.667, 606 376 C 606 374.333, 606.667 374, 610 374 C 613.333 374, 614 373.667, 614 372 C 614 370.333, 614.667 370, 618 370 C 621.333 370, 622 369.667, 622 368 C 622 366.900, 622.648 366, 623.441 366 C 625.394 366, 626.314 367.689, 624.756 368.415 C 623.753 368.882, 623.752 369.118, 624.750 369.583 C 625.438 369.904, 626 370.804, 626 371.583 C 626 373.454, 628.427 373.395, 630.012 371.486 C 630.844 370.483, 631.065 368.375, 630.665 365.236 L 630.063 360.500 631.564 363.943 C 632.390 365.837, 632.831 367.998, 632.544 368.745 C 632.258 369.492, 632.468 369.829, 633.011 369.493 C 633.555 369.157, 634 369.064, 634 369.287 C 634 370.844, 640.545 387.200, 644.366 395.193 C 646.915 400.524, 649 405.181, 649 405.541 C 649 405.902, 650.757 409.865, 652.905 414.348 C 655.052 418.832, 657.375 424.418, 658.067 426.762 C 659.390 431.250, 662 434.550, 662 431.737 C 662 430.334, 655.218 412.564, 644.736 386.500 C 632.264 355.486, 622.512 330.384, 615.019 310 C 612.088 302.025, 607.032 289.217, 603.785 281.537 C 600.538 273.858, 596.375 263.283, 594.533 258.037 C 591.173 248.463, 586.447 236.090, 576.568 211 C 573.645 203.575, 567.752 188.500, 563.474 177.500 C 559.196 166.500, 552.889 150.300, 549.459 141.500 C 546.028 132.700, 543.052 124.914, 542.844 124.199 C 542.571 123.261, 539.400 122.801, 531.483 122.551 C 513.878 121.996, 493.444 115.486, 479.327 105.936 C 470.535 99.989, 461.858 91.762, 459.706 87.333 C 458.495 84.839, 456.943 83.044, 456.051 83.104 C 455.198 83.161, 442.350 86.532, 427.500 90.596 M 382 138.996 C 379.525 139.415, 375.700 140.019, 373.500 140.338 C 355.061 143.014, 326.325 155.080, 305.524 168.881 C 294.178 176.409, 275.762 193.645, 267.603 204.373 C 260.983 213.077, 251.702 229.060, 247.786 238.500 C 243.827 248.042, 240.270 262.442, 238.839 274.719 C 237.590 285.432, 238.721 307.721, 241.098 319.208 C 246.114 343.451, 259.478 376.104, 272.896 396.898 C 288.309 420.783, 310.849 446.644, 327.882 459.984 C 349.989 477.298, 354.307 480.379, 363.500 485.400 C 375.016 491.689, 387.119 496.672, 394.424 498.133 C 400.896 499.426, 422.572 499.321, 428.765 497.965 C 465.733 489.876, 517.466 445.620, 546.205 397.500 C 568.703 359.830, 577.116 331.120, 577.268 291.500 C 577.336 274.003, 577.239 273.123, 573.805 260 C 569.382 243.096, 565.494 233.724, 557.282 220.169 C 549.787 207.799, 546.635 203.758, 535.008 191.613 C 508.795 164.233, 472.024 145.174, 434.500 139.519 C 423.898 137.921, 390.333 137.587, 382 138.996 M 382.363 155.043 C 368.066 156.461, 349.089 162.398, 333 170.487 C 299.723 187.218, 272.615 217.459, 260.828 251 C 257.262 261.146, 254 278.581, 254 287.490 C 254 309.773, 261.125 337.634, 273.439 363.500 C 292.067 402.629, 312.774 427.766, 350.322 456.830 C 365.769 468.787, 383.277 478.058, 397.123 481.614 C 405.675 483.810, 421.760 483.044, 431.500 479.976 C 450.166 474.095, 472.080 458.690, 497.003 433.929 C 516.005 415.049, 530.078 395.707, 541.970 372.125 C 549.405 357.382, 551.369 352.210, 554.933 338 C 559.747 318.808, 560.501 312.689, 560.481 293 C 560.464 276.115, 560.220 273.540, 557.684 263.500 C 554.259 249.939, 544.343 229.222, 535.987 218.169 C 510.497 184.454, 475.295 162.607, 435.955 156.088 C 423.508 154.025, 397.702 153.522, 382.363 155.043 M 136.891 168.993 C 130.513 172.287, 120.429 181.073, 119.436 184.201 C 118.999 185.580, 119.295 186.585, 120.305 187.151 C 121.822 188, 124.339 195.049, 131.559 218.674 L 135.280 230.848 138.890 228.625 C 144.093 225.421, 153.673 221.423, 159.750 219.920 C 162.637 219.206, 165 218.281, 165 217.864 C 165 216.356, 153.884 184.282, 150.236 175.264 C 145.933 164.626, 145.626 164.482, 136.891 168.993 M 163.302 233.993 C 143.688 240.774, 135.466 247.688, 128.424 263.323 C 123.666 273.887, 123.623 274.013, 124.750 273.974 C 125.162 273.960, 126.352 272.048, 127.393 269.724 C 129.185 265.727, 133.657 260, 134.986 260 C 135.323 260, 136.206 261.688, 136.948 263.750 C 137.691 265.813, 139.137 269.463, 140.162 271.862 C 141.821 275.747, 142.208 276.075, 143.700 274.862 C 145.156 273.678, 145.292 273.721, 144.740 275.195 C 144.353 276.228, 146.136 275.340, 149.303 272.924 C 155.656 268.077, 161.854 265.089, 173.054 261.475 L 181.609 258.715 177.527 245.182 C 175.282 237.739, 173.008 231.538, 172.473 231.404 C 171.938 231.269, 167.811 232.434, 163.302 233.993 M 193.071 244 C 193.062 244.275, 194.578 249, 196.442 254.500 C 199.862 264.596, 201.103 265.724, 198.643 256.500 C 197.520 252.291, 193.125 242.432, 193.071 244 M 299.500 245.980 C 291.626 247.236, 283.595 250.724, 278.742 254.996 C 264.684 267.370, 265.416 298.452, 280.254 319.191 C 294.089 338.527, 315.736 352.893, 339.500 358.507 C 346.891 360.253, 370.581 361.815, 380.202 361.190 C 385.749 360.831, 385.940 360.721, 387.202 357.160 C 388.903 352.364, 388.821 325.595, 387.081 317.500 C 382.244 294.998, 365.827 271.536, 346 258.793 C 329.503 248.190, 313.421 243.759, 299.500 245.980 M 499.402 245.997 C 482.066 248.539, 460.280 262.540, 447.269 279.500 C 440.924 287.770, 432.611 304.096, 430.522 312.387 C 427.842 323.019, 426.725 335.201, 427.268 347.864 C 427.653 356.828, 428.201 360.630, 429.264 361.693 C 430.525 362.953, 432.873 363.001, 446.005 362.032 C 464.307 360.682, 474.998 358.914, 486.171 355.390 C 516.113 345.944, 538.700 324.475, 545.590 298.908 C 549.548 284.225, 546.664 265.062, 539.265 256.871 C 531.187 247.930, 515.466 243.642, 499.402 245.997 M 308.405 264.857 C 298.141 269.636, 296.117 283.505, 304.596 290.950 C 307.520 293.518, 308.894 293.999, 313.285 293.996 C 322.432 293.990, 327.552 289.046, 328.612 279.196 C 329.850 267.697, 318.936 259.953, 308.405 264.857 M 494.500 264.861 C 490.089 267.585, 487.928 270.387, 486.974 274.616 C 485.719 280.181, 486.794 283.579, 491.434 288.704 C 495.250 292.919, 496.060 293.340, 501.160 293.763 C 508.761 294.394, 513.614 292.059, 516.105 286.576 C 518.522 281.254, 518.471 277.603, 515.904 272.302 C 512.016 264.270, 501.420 260.586, 494.500 264.861 M 173.500 277.769 C 163.434 283.062, 158.384 286.557, 157.510 288.835 C 156.948 290.299, 158.876 296.964, 168.549 327 C 170.940 334.425, 174.311 345.450, 176.040 351.500 C 179.049 362.030, 181.994 370.303, 184.199 374.419 C 184.765 375.474, 185.444 377.724, 185.708 379.419 C 185.972 381.113, 186.634 383.043, 187.180 383.706 C 187.726 384.370, 187.882 385.382, 187.527 385.956 C 187.172 386.530, 187.344 387, 187.910 387 C 188.475 387, 188.650 387.749, 188.299 388.664 C 187.895 389.717, 188.056 390.084, 188.737 389.663 C 189.397 389.254, 189.640 389.674, 189.363 390.749 C 189.116 391.712, 190.058 396.095, 191.457 400.488 C 192.855 404.881, 194 409.081, 194 409.821 C 194 410.561, 194.338 411.013, 194.750 410.825 C 195.162 410.637, 198.650 408.851, 202.500 406.856 C 206.350 404.861, 211.412 402.656, 213.750 401.956 C 217.790 400.746, 218.451 399.871, 218.230 396.021 C 218.175 395.046, 218.718 395.295, 219.823 396.749 C 221.017 398.321, 222.145 398.786, 223.740 398.364 C 226.591 397.611, 227.223 400.011, 213.234 358.500 C 206.932 339.800, 199.763 318.200, 197.304 310.500 C 186.137 275.542, 185.409 273.511, 183.969 273.276 C 183.161 273.144, 178.450 275.166, 173.500 277.769 M 334.704 296.596 C 327.656 300.417, 329.999 310, 337.981 310 C 342.210 310, 346 306.743, 346 303.109 C 346 300.642, 340.962 294.976, 338.827 295.040 C 338.097 295.062, 336.242 295.762, 334.704 296.596 M 473.687 297.805 C 470.352 301.286, 470.286 303.938, 473.452 307.354 C 476.413 310.549, 479.203 310.704, 483.151 307.892 C 487.283 304.950, 486.840 300.464, 482.102 297.282 C 477.750 294.359, 476.940 294.409, 473.687 297.805 M 615 326.441 C 615 327.234, 615.408 328.134, 615.907 328.442 C 616.405 328.751, 616.578 328.102, 616.290 327.001 C 615.679 324.666, 615 324.371, 615 326.441 M 551.564 331.707 C 551.022 333.132, 551.136 333.247, 552.124 332.267 C 552.808 331.588, 553.115 330.781, 552.807 330.474 C 552.499 330.166, 551.940 330.721, 551.564 331.707 M 198.066 337 C 198.069 337.825, 198.749 339.625, 199.577 341 L 201.083 343.500 200.421 341 C 200.056 339.625, 199.376 337.825, 198.909 337 C 198.155 335.667, 198.061 335.667, 198.066 337 M 201.079 345.583 C 201.127 346.748, 201.364 346.985, 201.683 346.188 C 201.972 345.466, 201.936 344.603, 201.604 344.271 C 201.272 343.939, 201.036 344.529, 201.079 345.583 M 622.543 345.931 C 622.226 346.443, 622.350 347.098, 622.817 347.387 C 623.284 347.676, 623.667 347.257, 623.667 346.456 C 623.667 344.770, 623.351 344.623, 622.543 345.931 M 202.014 349.083 C 202.039 351.739, 203.231 355, 204.176 355 C 204.694 355, 204.841 354.552, 204.502 354.004 C 204.164 353.456, 203.701 352.045, 203.475 350.868 C 202.980 348.299, 201.994 347.095, 202.014 349.083 M 184.667 370.667 C 184.300 371.033, 184 371.798, 184 372.367 C 184 372.993, 184.466 372.934, 185.183 372.217 C 185.834 371.566, 186.134 370.801, 185.850 370.517 C 185.566 370.233, 185.033 370.300, 184.667 370.667 M 188 382.642 C 188 383.179, 188.700 384.491, 189.555 385.559 C 191.022 387.389, 191.042 387.357, 189.920 385 C 188.462 381.939, 188 381.372, 188 382.642 M 214.429 388 C 214.429 389.100, 214.782 390, 215.214 390 C 215.646 390, 216 389.100, 216 388 C 216 386.900, 215.646 386, 215.214 386 C 214.782 386, 214.429 386.900, 214.429 388 M 364.250 398.584 C 362.462 399.992, 361 401.922, 361 402.872 C 361 405.492, 369.885 415.914, 375.261 419.600 C 385.283 426.472, 399.137 429.637, 415 428.677 C 433.221 427.575, 446.076 421.358, 454.478 409.584 C 457.178 405.799, 458.958 402.333, 458.634 401.488 C 457.866 399.488, 451.997 396.008, 449.383 396.004 C 448.025 396.001, 446.334 397.409, 444.665 399.930 C 439.216 408.163, 428.954 412.848, 414.500 413.699 C 397.908 414.677, 385.683 410.843, 376.677 401.837 C 373.467 398.627, 370.088 396.005, 369.170 396.011 C 368.252 396.017, 366.038 397.175, 364.250 398.584 M 560.079 404.583 C 560.127 405.748, 560.364 405.985, 560.683 405.188 C 560.972 404.466, 560.936 403.603, 560.604 403.271 C 560.272 402.939, 560.036 403.529, 560.079 404.583 M 317 407.378 C 317 407.585, 317.788 408.373, 318.750 409.128 C 320.336 410.371, 320.371 410.336, 319.128 408.750 C 317.821 407.084, 317 406.555, 317 407.378 M 222 416.381 C 208.911 420.946, 199.246 426.032, 194.471 430.867 C 190.122 435.273, 184.091 447.862, 183.424 453.929 L 183.031 457.500 184.024 453.633 C 185.024 449.739, 190.384 442, 192.081 442 C 192.583 442, 195.105 446.279, 197.684 451.508 L 202.374 461.016 204.937 458.655 C 211.416 452.687, 222.901 446.504, 234.875 442.537 L 240.250 440.756 239.689 436.128 C 239.010 430.531, 233.612 413.690, 232.380 413.328 C 231.896 413.185, 227.225 414.559, 222 416.381 M 552.731 416.920 C 552.296 418.583, 552.426 418.974, 553.168 418.232 C 553.750 417.650, 554.028 416.585, 553.788 415.863 C 553.538 415.114, 553.085 415.568, 552.731 416.920 M 282 435 C 282.589 436.100, 283.617 436.964, 284.285 436.921 C 285.201 436.862, 285.192 436.718, 284.250 436.338 C 283.563 436.060, 283 435.196, 283 434.417 C 283 433.637, 282.534 433, 281.965 433 C 281.263 433, 281.274 433.644, 282 435 M 286.304 439.750 C 286.420 441.891, 289.482 443.851, 290.742 442.591 C 291.067 442.266, 290.652 442, 289.819 442 C 288.987 442, 287.828 440.988, 287.244 439.750 L 286.183 437.500 286.304 439.750 M 531.405 443.250 L 529.500 445.500 531.750 443.595 C 533.864 441.805, 534.455 441, 533.655 441 C 533.465 441, 532.453 442.012, 531.405 443.250 M 290.500 445 C 290.160 445.550, 290.359 446, 290.941 446 C 291.523 446, 292 445.550, 292 445 C 292 444.450, 291.802 444, 291.559 444 C 291.316 444, 290.840 444.450, 290.500 445 M 639.872 449.750 C 638.629 451.336, 638.664 451.371, 640.250 450.128 C 641.916 448.821, 642.445 448, 641.622 448 C 641.415 448, 640.627 448.788, 639.872 449.750 M 665.130 450.875 C 658.163 454.482, 650.170 462.491, 643.545 472.500 C 637.014 482.367, 634.146 489.969, 633.336 499.559 L 632.712 506.933 641.606 504.541 C 658.796 499.919, 671.074 494.926, 675.065 490.935 C 679.396 486.604, 682.513 478.380, 681.610 473.666 C 680.894 469.929, 671.845 447.979, 671.048 448.047 C 670.747 448.073, 668.083 449.346, 665.130 450.875 M 273 453.500 C 273 454.325, 273.436 455, 273.969 455 C 274.501 455, 274.678 454.325, 274.362 453.500 C 274.045 452.675, 273.609 452, 273.393 452 C 273.177 452, 273 452.675, 273 453.500 M 236.500 459.886 C 222.595 466.202, 217.989 469.087, 218.100 471.409 C 218.367 477.008, 219.175 477.729, 225.216 477.759 C 229.962 477.783, 231.035 477.466, 231.534 475.894 C 231.864 474.852, 233.004 474, 234.067 474 C 235.130 474, 236 473.518, 236 472.929 C 236 472.339, 236.762 471.102, 237.694 470.179 C 239.280 468.607, 239.346 468.611, 238.725 470.250 C 238.234 471.548, 238.571 472, 240.031 472 C 242.077 472, 242.747 469.580, 241 468.500 C 240.450 468.160, 240 466.919, 240 465.741 C 240 464.397, 240.350 463.954, 240.941 464.550 C 242.696 466.322, 251.141 489.190, 250.580 490.651 C 250.274 491.450, 250.398 491.872, 250.858 491.588 C 251.797 491.008, 255.158 502.173, 254.653 504.196 C 254.474 504.913, 254.531 505.120, 254.779 504.656 C 255.441 503.416, 259.931 514.876, 260.497 519.250 C 260.789 521.510, 260.564 523, 259.932 523 C 259.354 523, 259.160 522.550, 259.500 522 C 260.459 520.448, 259.322 520.820, 257.481 522.662 C 256.097 524.046, 255.675 524.092, 254.964 522.941 C 254.493 522.180, 253.795 521.872, 253.412 522.255 C 253.029 522.638, 253.239 523.583, 253.880 524.355 C 254.820 525.488, 254.546 525.854, 252.464 526.252 C 250.668 526.595, 250.030 526.365, 250.364 525.494 C 251.107 523.558, 248.921 522, 245.461 522 C 243.067 522, 242.045 522.605, 241.161 524.547 C 240.522 525.948, 240 527.752, 240 528.556 C 240 530.776, 236.191 528.115, 235.678 525.535 C 235.375 524.017, 235.238 524.186, 235.136 526.203 C 235.061 527.690, 235.513 530.031, 236.139 531.407 C 237.236 533.813, 237.390 533.850, 240.221 532.386 C 241.840 531.549, 248.375 528.887, 254.744 526.470 C 261.112 524.054, 266.685 521.715, 267.127 521.273 C 267.569 520.831, 265.003 512.151, 261.425 501.985 C 257.847 491.818, 252.934 477.694, 250.508 470.598 C 248.081 463.501, 245.736 457.371, 245.298 456.974 C 244.859 456.577, 240.900 457.888, 236.500 459.886 M 314.590 469.855 C 314.259 470.391, 314.553 471.057, 315.244 471.336 C 315.935 471.614, 315.375 471.891, 314 471.951 C 311.810 472.047, 311.717 472.187, 313.250 473.080 C 314.212 473.641, 315.640 473.740, 316.422 473.300 C 317.612 472.630, 317.628 472.205, 316.518 470.690 C 315.776 469.677, 314.927 469.309, 314.590 469.855 M 231.813 472.683 C 232.534 472.972, 233.397 472.936, 233.729 472.604 C 234.061 472.272, 233.471 472.036, 232.417 472.079 C 231.252 472.127, 231.015 472.364, 231.813 472.683 M 318.617 474.556 C 317.503 477.459, 317.971 480.775, 319.582 481.393 C 321.959 482.305, 322 482.258, 322 478.622 C 322 474.750, 319.634 471.906, 318.617 474.556 M 221.079 481.583 C 221.127 482.748, 221.364 482.985, 221.683 482.188 C 221.972 481.466, 221.936 480.603, 221.604 480.271 C 221.272 479.939, 221.036 480.529, 221.079 481.583 M 325.543 480.931 C 325.226 481.443, 325.425 482.144, 325.984 482.490 C 326.543 482.835, 327 482.416, 327 481.559 C 327 479.802, 326.400 479.544, 325.543 480.931 M 669.127 485.674 C 666.722 486.905, 664.472 488.197, 664.127 488.545 C 663.223 489.457, 672.318 485.862, 673.433 484.866 C 675.373 483.135, 673.342 483.516, 669.127 485.674 M 247 489 C 247 489.550, 247.450 490, 248 490 C 248.550 490, 249 489.550, 249 489 C 249 488.450, 248.550 488, 248 488 C 247.450 488, 247 488.450, 247 489 M 250.015 495.191 C 250.007 496.121, 250.450 497.160, 251 497.500 C 252.266 498.282, 252.266 496.958, 251 495 C 250.165 493.707, 250.029 493.734, 250.015 495.191 M 249 499.941 C 249 501.073, 249.450 502, 250 502 C 250.550 502, 251 501.352, 251 500.559 C 251 499.766, 250.550 498.840, 250 498.500 C 249.450 498.160, 249 498.809, 249 499.941 M 254.500 509.765 C 253.214 510.710, 252.557 514.392, 253.812 513.616 C 254.333 513.294, 254.996 512.124, 255.286 511.016 C 255.878 508.751, 255.878 508.753, 254.500 509.765 M 661.511 518.983 C 660.713 520.274, 650.293 523.374, 617.500 532.076 C 602.650 536.017, 583.975 541.017, 576 543.187 C 548.844 550.576, 535.514 554.148, 522.500 557.520 C 515.350 559.373, 502.750 562.717, 494.500 564.953 C 486.250 567.188, 474.100 570.378, 467.500 572.043 C 452.303 575.876, 438.409 579.581, 409.500 587.508 C 379.256 595.801, 331.634 608.568, 304.500 615.656 C 289.515 619.570, 279.087 624.746, 272.177 631.698 C 264.490 639.434, 261.653 645.521, 261.742 654.095 C 261.872 666.544, 267.314 674.658, 278.720 679.409 C 285.850 682.379, 286 682.408, 286 680.818 C 286 679.231, 278.040 659.752, 276.900 658.550 C 276.405 658.028, 276 655.698, 276 653.373 C 276 648.360, 279.004 645.362, 284.851 644.539 C 288.562 644.016, 299.527 641.312, 322 635.376 C 336.356 631.584, 340.049 631.291, 342.289 633.767 C 343.169 634.739, 345.531 639.577, 347.538 644.517 C 349.545 649.458, 352.023 655.525, 353.045 658 C 354.067 660.475, 355.487 662.423, 356.202 662.329 C 356.916 662.234, 363.350 660.358, 370.500 658.160 C 377.650 655.961, 387.325 653.196, 392 652.015 C 396.675 650.835, 404.100 648.796, 408.500 647.486 C 412.900 646.175, 426.175 642.590, 438 639.519 C 449.825 636.449, 466.925 631.940, 476 629.500 C 485.075 627.060, 501.275 622.809, 512 620.053 C 536.069 613.869, 549.165 610.379, 568.500 604.997 C 576.750 602.700, 588.450 599.551, 594.500 597.998 C 613.199 593.200, 636.076 586.945, 645.500 584.054 C 650.450 582.536, 659.450 580.254, 665.500 578.983 C 671.550 577.711, 676.650 576.557, 676.834 576.419 C 677.017 576.280, 676.233 574.054, 675.091 571.473 C 673.422 567.700, 672.671 566.926, 671.258 567.526 C 670.291 567.937, 665.675 569.317, 661 570.593 C 632.976 578.245, 624.222 580.605, 613 583.537 C 575.560 593.318, 562.986 596.654, 537.500 603.567 C 522.100 607.745, 502.975 612.928, 495 615.086 C 487.025 617.244, 465.650 622.804, 447.500 627.442 C 418.863 634.761, 404.784 638.569, 367 649.219 C 356.796 652.095, 353.588 652.118, 353.189 649.318 C 353 647.989, 353.587 646.774, 354.689 646.212 C 358.758 644.139, 408.572 630.374, 455.500 618.355 C 471.450 614.270, 493.057 608.739, 503.516 606.064 C 513.976 603.388, 525.676 600.276, 529.516 599.148 C 538.218 596.593, 580.617 585.053, 600 579.964 C 607.975 577.870, 619 574.973, 624.500 573.525 C 630 572.078, 638.100 569.831, 642.500 568.533 C 646.900 567.234, 655 565.150, 660.500 563.900 C 666 562.651, 670.923 561.267, 671.440 560.825 C 672.005 560.341, 671.444 558.321, 670.033 555.760 C 667.039 550.323, 667.266 550.534, 665.764 551.781 C 664.483 552.844, 639.281 559.908, 599.500 570.356 C 545.194 584.618, 514.084 592.872, 489.500 599.543 C 477.950 602.676, 463.775 606.336, 458 607.674 C 452.225 609.013, 444.575 610.966, 441 612.013 C 437.425 613.061, 421.675 617.359, 406 621.564 C 390.325 625.769, 371.875 630.736, 365 632.601 C 351.819 636.177, 347.554 636.705, 346.438 634.899 C 344.419 631.634, 355.710 627.415, 389 618.995 C 395.325 617.396, 407.700 614.014, 416.500 611.480 C 425.300 608.946, 440.825 604.862, 451 602.404 C 461.175 599.946, 476.700 595.956, 485.500 593.537 C 494.300 591.118, 511.175 586.601, 523 583.499 C 534.825 580.398, 548.100 576.794, 552.500 575.491 C 556.900 574.189, 567.488 571.342, 576.030 569.166 C 590.698 565.429, 600.532 562.771, 643.500 550.935 C 653.400 548.208, 662.786 545.982, 664.357 545.988 C 666.677 545.998, 667.084 545.671, 666.522 544.250 C 666.141 543.288, 665.580 541.013, 665.275 539.197 C 664.944 537.223, 664.245 536.076, 663.539 536.347 C 661.666 537.065, 615.470 549.387, 593.539 555.018 C 582.561 557.836, 573.288 560.322, 572.933 560.542 C 572.577 560.761, 565.359 562.713, 556.893 564.878 C 548.427 567.044, 531.375 571.528, 519 574.843 C 481.116 584.990, 448.123 593.649, 435 596.888 C 428.125 598.584, 417.325 601.516, 411 603.402 C 404.675 605.288, 386.450 610.287, 370.500 614.509 C 354.550 618.732, 334.750 624.147, 326.500 626.542 C 318.250 628.937, 306.460 632.026, 300.301 633.406 C 294.141 634.787, 285.694 637.060, 281.530 638.458 C 269.570 642.473, 267.167 641.630, 273.250 635.553 C 277.656 631.152, 287.369 628.181, 349 612.383 C 356.425 610.480, 365.425 608.014, 369 606.903 C 372.575 605.791, 386.300 601.986, 399.500 598.446 C 412.700 594.906, 428.450 590.654, 434.500 588.996 C 440.550 587.339, 450.900 584.588, 457.500 582.884 C 464.100 581.180, 474.900 578.273, 481.500 576.424 C 488.100 574.574, 503.175 570.592, 515 567.575 C 526.825 564.558, 538.075 561.606, 540 561.015 C 546.502 559.018, 576.415 550.771, 589 547.506 C 595.875 545.722, 612.075 541.337, 625 537.761 C 637.925 534.185, 651.987 530.443, 656.250 529.447 L 664 527.634 664 522.817 C 664 518.331, 662.931 516.684, 661.511 518.983 M 328 532.393 C 328 532.609, 328.675 533.045, 329.500 533.362 C 330.325 533.678, 331 533.501, 331 532.969 C 331 532.436, 330.325 532, 329.500 532 C 328.675 532, 328 532.177, 328 532.393 M 261.274 540.062 C 252.206 543.339, 242.708 548.561, 237.499 553.135 C 234.726 555.570, 226 569.673, 226 571.721 C 226 572.032, 227.596 570.198, 229.546 567.644 C 231.496 565.090, 233.516 563, 234.034 563 C 234.552 563, 235.259 564.767, 235.604 566.926 C 236.342 571.541, 239.416 577, 241.276 577 C 241.994 577, 246.154 574.744, 250.520 571.987 C 255.810 568.647, 262.218 565.770, 269.729 563.363 C 275.928 561.376, 280.981 559.469, 280.957 559.125 C 280.934 558.781, 279.021 553.777, 276.707 548.003 C 274.194 541.732, 271.896 537.423, 271 537.299 C 270.175 537.184, 265.798 538.428, 261.274 540.062 M 281 576.979 C 280.175 577.452, 275.658 579.676, 270.962 581.920 C 266.265 584.165, 261.015 587.238, 259.293 588.751 L 256.163 591.500 258.076 594.500 C 259.486 596.711, 259.991 597.024, 259.995 595.691 C 259.998 594.696, 260.450 594.160, 261 594.500 C 261.550 594.840, 262 594.528, 262 593.807 C 262 592.439, 267.478 589.350, 274.770 586.606 C 280.396 584.490, 280.385 584.487, 282.181 588.254 C 284.712 593.562, 285.413 598.117, 283.857 599.155 C 282.218 600.249, 287.679 599.143, 290.148 597.881 C 292.159 596.853, 291.367 592.435, 287.388 582.495 C 284.816 576.072, 283.923 575.301, 281 576.979 M 655 588.591 C 643.175 592.112, 620 598.640, 603.500 603.098 C 587 607.556, 567.875 612.742, 561 614.621 C 554.125 616.501, 536.297 621.147, 521.382 624.947 C 506.467 628.747, 490.492 632.977, 485.882 634.348 C 481.272 635.719, 470.300 638.732, 461.500 641.043 C 422.450 651.301, 414.604 653.398, 400 657.481 C 391.475 659.865, 378.313 663.513, 370.750 665.589 C 359.726 668.616, 357 669.713, 357 671.123 C 357 674.213, 358.826 674.209, 368.833 671.100 C 374.219 669.427, 381.665 667.353, 385.379 666.492 C 389.093 665.630, 395.590 663.836, 399.816 662.504 C 408.641 659.723, 427.840 654.493, 449.500 648.969 C 457.750 646.865, 469.450 643.766, 475.500 642.082 C 481.550 640.399, 500.675 635.339, 518 630.839 C 569.345 617.500, 576.216 615.670, 605 607.671 C 645.560 596.399, 662.206 591.496, 665.004 589.996 C 666.377 589.260, 670.424 587.918, 673.999 587.015 C 678.445 585.892, 680.600 584.841, 680.822 583.687 C 681.327 581.061, 678.464 581.605, 655 588.591 M 330.500 654.555 C 327.592 656.492, 307.480 662.112, 302.710 662.321 C 299.153 662.477, 298.546 662.183, 297.918 660 C 297.399 658.194, 297.172 658.017, 297.100 659.363 C 297.045 660.387, 302.440 677.937, 309.089 698.363 C 315.738 718.788, 321.381 736.145, 321.628 736.933 C 322.010 738.149, 325.654 731.905, 333.700 716.250 C 334.619 714.462, 335.846 713, 336.427 713 C 337.007 713, 339.737 714.493, 342.491 716.318 C 348.117 720.046, 357.950 726, 358.480 726 C 358.670 726, 358.403 724.763, 357.887 723.250 C 357.370 721.737, 352.724 707.675, 347.563 692 C 338.582 664.724, 334.792 654.589, 333.222 653.653 C 332.825 653.416, 331.600 653.822, 330.500 654.555" stroke="none" fill="black" fill-rule="evenodd"/>
</svg>